<svg width="639" height="703" viewBox="0 0 639 703" fill="none" xmlns="http://www.w3.org/2000/svg">
<g clip-path="url(#clip0_0_1)">
<rect width="350" height="350" transform="translate(352.975 133.151) rotate(135)" fill="white"/>
<path d="M224.281 14.357L100.538 -109.387L-18.2563 9.40723L-138.465 129.615L-14.7208 253.359L103.976 372.056L223.37 252.662L342.978 133.053L224.281 14.357ZM104.087 361.11C102.554 361.314 93.6965 352.565 -12.939 245.93L-128.322 130.547L-13.5338 15.758L101.255 -99.0306L216.306 16.0206C279.534 79.2489 331.361 131.51 331.532 132.115C331.702 132.72 331.387 134.032 331.013 135.07C330.477 136.27 291.023 176.056 217.97 248.999C123.749 342.998 105.457 361.069 104.087 361.11Z" fill="#FC4D04"/>
<path d="M316.765 129.94C305.937 121.39 293 115.835 282.689 115.293C270.733 114.626 261.614 118.098 252.711 126.78L247.173 132.096L250.553 135.803C267.678 154.555 293.441 154.593 316.551 135.912L320.412 132.826L316.765 129.94Z" fill="#FC4D04"/>
<path d="M259.169 191.854C262.948 185.972 264.538 180.506 264.254 174.035C263.614 159.284 253.411 147.561 239.69 145.78C232.994 144.946 225.891 147.287 221.278 151.9C219.379 153.8 217.973 155.759 218.087 156.199C218.202 156.748 220.347 157.482 222.818 157.891C229.077 158.94 232.213 160.122 236.242 162.848C242.811 167.463 246.239 175.884 244.336 182.991C243.172 187.145 238.352 193.072 233.614 196.149C225.389 201.384 212.693 203.45 204.718 200.794C199.988 199.212 198.213 197.112 201.447 197.089C203.475 197.055 212.303 191.88 215.071 189.112C218.87 185.313 220.947 179.14 219.973 174.909C219.003 171.118 215.233 166.805 211.49 165.232C208.682 164.053 207.919 164.484 207.347 167.603C206.883 170.504 201.464 176.808 197.539 178.961C187.563 184.508 175.23 179.013 159.933 162.087C153.615 155.227 152.509 154.23 151.804 154.935C149.85 156.889 152.666 164.482 159.407 175.347C162.693 180.587 165.023 183.351 173.826 192.155C183.295 201.732 184.842 202.953 189.747 205.578C212.065 217.476 228.616 217.203 246.58 204.665C253.113 200.126 255.338 197.9 259.169 191.854Z" fill="#FC4D04"/>
<path d="M176.507 274.184C184.226 262.147 186.513 249.672 183.099 237.03C179.508 223.236 174.213 214.468 163.085 203.449C149.965 190.437 135.182 181.19 126.957 180.889L124.325 180.753L135.626 192.706C147.038 204.769 148.428 206.701 150.634 213.575C151.876 217.205 151.231 223.941 149.399 227.212C147.191 231.082 141.156 236.119 137.766 236.962C135.361 237.596 135.034 237.812 135.104 239.293C135.058 240.224 136.231 242.374 137.618 244.087C146.667 255.524 161.511 248.984 167.308 231.118C168.212 228.331 169.204 228.889 170.667 232.631C172.579 237.474 172.534 249.478 170.616 255.05C166.245 267.504 156.566 275.301 146.854 274.272C137.416 273.301 129.261 263.517 128.104 251.94C127.614 246.783 126.625 246.554 122.5 250.678C117.833 255.346 115.806 261.026 116.261 268.102C116.977 279.456 123.969 288.076 135.74 292.14C145.751 295.639 153.742 294.403 163.434 287.922C169.532 283.816 171.756 281.482 176.507 274.184Z" fill="#FC4D04"/>
<path d="M110.349 340.453C117.636 329.069 120.349 320.819 120.247 310.623C120.171 302.948 118.745 297.398 115.23 291.169C112.442 286.427 105.839 278.413 103.635 277.295C102.037 276.456 101.819 276.564 96.7781 282.269C88.4298 291.614 84.6929 301.663 85.5132 312.469C86.3292 322.837 93.8422 339.685 100.929 346.772C103.531 349.375 103.531 349.375 105.213 347.582C106.19 346.605 108.515 343.395 110.349 340.453Z" fill="#FC4D04"/>
<path d="M259.675 105.088C263.499 98.2742 264.545 87.8151 262.06 80.4452C260.929 76.9258 255.138 67.8785 252.259 64.9994C248.272 61.013 237.244 54.435 230.533 52.0659C220.686 48.5145 212.355 48.6507 201.374 52.3234C188.372 56.6886 183.633 59.6562 172.885 70.2927C163.876 79.3021 159.547 84.9597 154.758 93.9563C151.8 99.5728 149.845 106.953 151.063 108.171C151.285 108.393 155.901 104.108 161.273 98.6257C170.336 89.4524 171.64 88.3691 176.82 85.6252C186.363 80.6225 195.254 81.6978 202.176 88.7282C203.284 89.9452 204.842 92.2629 205.626 93.9152C208.036 99.2562 208.202 99.4223 210.005 98.8373C216.346 97.0368 220.278 90.1146 218.786 83.4123C217.295 76.8198 210.156 70.0064 201.63 67.0163C198.221 65.886 197.886 65.3345 199.956 64.0396C202.627 62.4766 208.922 61.6075 214.516 61.9921C227.627 62.945 239.656 70.9582 243.155 81.079C243.89 83.3337 243.975 86.3493 243.46 89.633C242.63 94.3388 242.306 94.8837 238.399 98.7914C233.73 103.349 228.601 105.71 221.536 106.352C216.608 106.851 216.565 108.002 221.158 112.378C228.13 118.916 239.217 120.451 248.163 116.046C253.345 113.521 256.603 110.374 259.675 105.088Z" fill="#FC4D04"/>
<path d="M86.3795 278.383C91.0055 269.549 89.523 258.298 82.8149 250.721C78.379 245.634 77.5052 245.954 76.2085 253.341C73.7691 267.075 65.1308 274.828 53.9323 273.181C42.5698 271.588 32.3908 256.742 32.1868 241.775C32.1853 236.129 33.4952 230.058 35.1777 228.375C36.1003 227.453 36.8722 227.899 36.8875 229.434C36.9658 231.792 41.7047 239.787 45.0267 243.109C49.4006 247.483 53.9133 249.282 58.7309 248.672C61.6868 248.263 62.8863 247.617 65.4925 245.122C69.0746 241.54 70.5724 237.827 68.7009 237.041C67.9855 236.76 65.5071 235.584 63.1937 234.465C59.3378 232.563 58.6734 231.899 56.336 228.367C53.0519 223.346 52.1973 220.104 52.9145 215.068C54.1526 207.297 57.0681 202.831 68.5209 191.489C79.5384 180.471 80.0225 179.544 74.3322 180.584C69.9 181.362 64.2803 183.992 56.9271 188.687C48.2128 194.301 33.23 208.952 29.4593 215.602C16.8022 238.114 16.811 255.49 29.7172 274.475C33.1109 279.497 41.4082 287.034 46.4225 289.661C60.4189 297.036 79.3862 291.688 86.3795 278.383Z" fill="#FC4D04"/>
<path d="M169.134 51.3443C178.815 38.2305 183.965 21.4538 182.036 9.4302C180.809 1.79875 177.22 -6.34957 171.66 -14.1886C167.213 -20.3722 166.715 -20.8705 160.92 -24.8201C157.608 -27.1553 153.419 -29.4992 151.659 -30.0649C140.605 -33.738 126.227 -29.8799 119.131 -21.3447C111.331 -11.9944 111.583 2.2599 119.617 10.8362C123.993 15.4294 125.143 15.3861 125.642 10.4578C127.479 -8.76383 143.941 -18.0279 157.53 -7.47766C164.434 -2.20146 169.472 8.2635 170.011 18.3547C170.343 24.1136 168.352 33.4122 166.817 33.3969C166.379 33.3925 165.599 32.1788 165.091 30.6938C163.065 25.4114 161.005 22.1568 157.184 18.3365C153.918 15.0699 152.649 14.235 149.351 13.3251C147.097 12.6997 144.244 12.452 142.986 12.7136C139.43 13.3907 135.137 17.1301 133.692 20.6787C132.408 23.8451 132.298 23.7344 138.079 26.3683C144.852 29.4506 149.193 35.962 149.321 43.3632C149.577 52.5198 143.911 61.5077 130.33 73.7604C124.191 79.3451 123.161 80.4859 124.043 80.9332C126.907 82.387 135.971 78.8595 145.775 72.4891C152.746 67.9542 165.131 56.6762 169.134 51.3443Z" fill="#FC4D04"/>
<path d="M36.3296 184.481C41.1458 178.225 46.7618 169.73 48.6938 165.583C51.162 160.236 52.3145 154.876 51.2071 153.768C50.5427 153.104 49.2934 154.243 43.8172 160.272C30.6429 174.886 19.4134 181.133 10.2914 178.849C8.69784 178.45 5.55835 176.938 3.40562 175.437C-0.567637 172.766 -2.29055 170.392 -4.99184 163.349C-5.72144 161.642 -8.72725 162.544 -12.3701 165.523C-15.9576 168.557 -17.2384 172.052 -16.6355 177.539C-15.9165 183.686 -8.05666 191.329 0.854771 194.487C4.76064 195.896 4.64991 195.785 3.61871 196.817C1.93623 198.499 -4.13512 199.809 -9.78103 199.808C-20.5811 199.645 -32.8079 193.823 -37.7618 186.264C-41.1001 181.297 -41.7809 178.988 -41.3937 173.839C-40.7246 163.979 -33.0611 157.423 -19.7058 155.473C-14.5061 154.703 -14.1338 153.556 -18.0648 149.625C-25.3178 142.372 -37.1731 140.828 -46.7147 145.941C-51.7308 148.631 -54.552 151.563 -57.4022 157.071C-61.5452 164.868 -62.2829 173.357 -59.74 181.002C-57.1418 188.702 -49.2102 198.044 -40.494 203.613C-23.0052 214.914 -4.59116 214.55 16.0106 202.696C20.0432 200.324 33.0277 188.668 36.3296 184.481Z" fill="#FC4D04"/>
<path d="M51.1054 105.037C50.8041 96.8121 41.5011 81.8646 28.5454 68.9089C19.7965 60.0514 14.6073 56.3819 4.97396 52.2845C-9.17432 46.1687 -20.4716 45.6176 -33.0321 50.316C-45.8651 55.1763 -57.3732 66.463 -60.881 77.5005C-64.1228 87.7185 -60.8176 100.359 -52.8449 108.332C-47.9726 113.204 -42.0834 115.62 -34.7375 115.693C-27.6663 115.708 -23.08 113.89 -18.2497 109.06C-14.6133 105.424 -14.9532 104.324 -19.9456 103.891C-21.6467 103.709 -24.9435 102.909 -27.3079 102.173C-30.9923 100.985 -32.2613 100.15 -36.4138 95.9976C-40.8431 91.5683 -41.2329 90.9615 -41.9279 87.2272C-43.0898 80.6378 -42.0382 76.1535 -37.9189 71.4805C-31.0914 63.5457 -22.4138 59.7403 -11.1752 59.9072C-4.81605 59.9705 2.71122 61.7448 2.72543 63.1701C2.78298 63.4448 0.546839 64.5736 -2.18214 65.7523C-8.02219 68.2704 -13.569 72.7099 -15.8321 76.634C-20.0338 84.0469 -17.0403 92.9018 -9.22422 96.159C-6.08692 97.451 -6.08692 97.451 -5.13185 94.2813C-2.36972 85.4288 7.26947 79.1116 15.6174 80.7296C23.6353 82.2347 26.4492 84.0716 39.2887 96.3684L51.2412 107.67L51.1054 105.037Z" fill="#FC4D04"/>
<path d="M69.9624 72.1172C59.7848 62.9165 55.0645 56.7851 52.5803 49.5248C50.2123 42.9234 50.5496 38.2676 53.7863 33.0377C56.4305 28.8433 61.0535 25.2168 64.9918 24.379C66.7971 24.0133 67.0684 23.7419 67.0542 22.3166C67.0335 20.2335 64.2498 15.9302 61.766 14.2062C58.6753 12.0924 54.5014 11.2834 50.8366 12.0691C47.9926 12.6985 46.8495 13.5094 42.7258 17.7438C38.601 21.8686 37.6296 23.3937 36.134 27.3254C35.2277 29.8927 34.3724 32.0768 34.2639 32.1853C33.7212 32.728 32.2175 30.356 31.2002 27.2763C29.3348 21.6118 29.686 12.845 32.0824 5.79779C34.1608 -0.156269 34.5385 -0.755465 39.6945 -5.91145C44.4163 -10.6332 45.5593 -11.4441 48.7302 -12.2895C56.1106 -14.2441 64.0353 -11.0955 68.9261 -4.35937C71.8715 -0.328557 73.0527 2.69801 74.104 9.1766C74.5123 11.6473 75.2463 13.7924 75.7955 13.9075C76.2352 14.0215 78.1945 12.6159 80.0941 10.7163C90.5146 0.295772 87.5325 -18.4257 74.183 -26.8905C68.2807 -30.6219 63.9916 -31.9802 57.6303 -32.2629C48.0883 -32.6869 40.4474 -29.3645 32.3607 -21.2778C23.6237 -12.4301 17.5684 1.48723 17.6267 12.8344C17.6795 23.6334 23.0876 38.2679 30.8672 48.8699C42.4803 64.6077 72.3373 84.9126 77.0591 80.1908C77.7647 79.4852 76.767 78.379 69.9624 72.1172Z" fill="#FC4D04"/>
</g>
<g clip-path="url(#clip1_0_1)">
<rect width="350" height="350" transform="translate(186.975 455.151) rotate(135)" fill="#2172BE"/>
<path d="M161.645 478.159C168.026 470.554 174.89 462.144 177.79 458.47L180.4 455.151L177.79 451.832C171.925 444.42 157.005 426.471 154.878 424.344C153.235 422.7 152.494 422.926 153.783 424.73C154.943 426.406 164.868 438.781 170.056 445C170.926 446.063 172.731 448.319 174.084 449.995C175.405 451.703 176.92 453.54 177.371 454.12C178.112 454.99 178.112 455.312 177.403 456.214C176.888 456.794 174.858 459.34 172.795 461.918C170.733 464.496 166.963 469.104 164.417 472.23C154.975 483.734 152.751 486.667 153.17 487.086C153.557 487.472 156.393 484.508 161.645 478.159Z" fill="white"/>
<path d="M134.834 485.313C135.35 484.476 136.413 482.059 137.187 479.932C137.928 477.773 139.056 475.098 139.668 473.906C141.279 470.748 146.178 464.367 149.787 460.758C152.848 457.632 152.913 457.568 151.366 458.148C148.208 459.437 142.343 462.53 138.927 464.786C136.349 466.462 134.029 468.46 130.259 472.23C125.264 477.225 125.07 477.483 124.329 479.9C123.362 482.993 123.556 485.636 124.813 487.472C127.1 490.792 132.16 489.728 134.834 485.313Z" fill="white"/>
<path d="M147.273 456.375C135.479 456.633 123.105 458.953 110.988 463.207C97.6792 467.88 90.4286 474.357 89.3329 482.413C89.0429 484.443 90.2352 488.6 91.4598 489.825C92.7488 491.114 96.9058 492.113 99.2904 491.662C103.995 490.824 103.641 491.114 114.468 480.286C124.265 470.49 124.555 470.264 129.098 467.461C134.061 464.367 140.409 461.241 147.789 458.18L152.333 456.279L147.273 456.375Z" fill="white"/>
<path d="M150.915 450.478C147.821 447.836 142.826 441.681 140.474 437.653C139.507 435.977 137.993 432.529 137.058 429.919C135.64 425.987 135.092 424.924 133.417 423.248C131.87 421.637 131.064 421.154 129.84 420.96C124.941 420.251 122.46 424.473 124.329 430.402C125.038 432.593 125.554 433.367 128.97 436.976C131.548 439.747 133.997 441.939 136.607 443.84C140.377 446.515 152.139 452.927 152.977 452.734C153.235 452.67 152.3 451.671 150.915 450.478Z" fill="white"/>
<path d="M150.818 453.282C149.916 452.96 147.853 452.122 146.21 451.445C140.828 449.286 133.835 445.773 129.098 442.841C124.555 440.037 124.265 439.812 114.468 430.015C103.641 419.188 103.963 419.446 99.2903 418.64C96.9057 418.189 92.7487 419.188 91.4597 420.477C90.2029 421.734 89.075 425.891 89.3328 428.017C90.2996 434.978 96.6801 441.359 106.992 445.548C118.077 450.059 131.515 453.056 143.696 453.765C146.983 453.959 150.27 454.087 151.044 454.023L152.397 453.959L150.818 453.282Z" fill="white"/>
<path d="M39.1263 512.06C41.3498 508.483 40.6731 505.164 37.0961 501.974C33.1002 498.429 29.1043 497.656 19.0824 498.59C7.12693 499.718 -4.24847 497.559 -19.1042 491.404C-21.6177 490.373 -24.099 489.374 -24.6146 489.18C-25.9036 488.729 -18.5886 495.4 -13.207 499.557C-4.69962 506.195 7.90033 513.252 16.2788 516.088C21.2414 517.764 27.4608 518.312 31.1345 517.345C33.0035 516.829 37.515 514.509 38.0628 513.768C38.1273 513.639 38.6107 512.898 39.1263 512.06Z" fill="white"/>
<path d="M-0.187931 551.181C4.64581 543.254 2.03559 531.234 -8.27638 513.768C-12.2078 507.065 -22.0686 494.369 -25.4523 491.629C-26.6124 490.663 -26.5479 490.921 -24.8722 494.916C-18.0083 511.383 -15.9459 521.76 -17.0416 534.392C-17.6538 542.223 -17.4927 545.091 -16.1715 548.732C-14.3347 553.791 -9.66206 556.982 -5.82729 555.725C-3.31375 554.887 -1.63805 553.534 -0.187931 551.181Z" fill="white"/>
<path d="M25.7531 482.703C30.4902 474.357 28.6211 462.692 21.6928 457.052L19.5659 455.312L22.4984 452.315C25.882 448.803 27.2677 446.128 28.17 441.423C28.7178 438.491 28.3311 434.301 27.2999 431.143C25.2697 424.924 19.4693 419.575 12.4765 417.416C6.32149 415.579 0.649906 416.03 -9.53317 419.317C-20.7474 422.926 -27.5147 426.148 -34.1208 430.95C-38.2133 433.947 -39.7924 435.526 -42.0481 438.748L-43.8205 441.23L-41.2103 439.973C-37.4722 438.168 -35.8609 437.782 -32.1873 437.782C-26.3868 437.782 -18.685 441.23 -11.5633 447.062C-8.69532 449.415 -1.79919 454.249 -0.57464 454.764C0.134307 455.086 0.134307 455.215 -0.57464 455.538C-1.79919 456.053 -8.69532 460.887 -11.5633 463.239C-18.685 469.072 -26.3868 472.52 -32.1873 472.52C-35.6031 472.52 -38.0844 471.908 -41.6614 470.135L-43.8205 469.072L-42.0481 471.553C-36.7954 479.062 -26.5157 485.346 -11.1444 490.534C2.1967 494.981 10.2207 495.013 17.7936 490.534C20.7583 488.794 24.2063 485.346 25.7531 482.703Z" fill="white"/>
<path d="M40.0931 404.235C41.4788 399.563 37.5473 394.665 31.1346 392.957C27.4609 391.99 21.2415 392.538 16.2789 394.214C7.83594 397.049 -4.6351 404.042 -13.1425 410.68C-19.4908 415.611 -25.3557 420.96 -24.679 421.121C-24.3245 421.218 -23.9056 421.121 -23.7123 420.928C-23.1644 420.38 -15.0115 417.19 -9.69441 415.418C1.03649 411.841 9.31829 410.777 19.4369 411.744C29.2977 412.646 33.2292 411.873 37.1928 408.167C39.0297 406.523 39.6742 405.621 40.0931 404.235Z" fill="white"/>
<path d="M-19.1362 411.776C-13.1424 404.558 -8.82426 397.984 -4.18387 389.025C2.71226 375.62 4.00126 365.888 -0.316879 358.992C-1.83145 356.51 -4.11942 354.803 -6.47184 354.319C-9.98435 353.578 -14.4958 356.929 -16.1715 361.57C-17.4928 365.211 -17.6539 368.079 -17.0094 375.878C-15.9782 388.188 -17.7183 397.533 -23.97 413.065C-25.3234 416.481 -26.4513 419.413 -26.4513 419.542C-26.4835 419.961 -22.0365 415.256 -19.1362 411.776Z" fill="white"/>
</g>
<g clip-path="url(#clip2_0_1)">
<rect width="350" height="350" transform="translate(638.975 -66.5127) rotate(135)" fill="#2172BE"/>
<path d="M423.422 147.171C423.003 146.752 420.264 148.846 408.727 158.256C400.413 165.088 393.002 171.017 392.003 171.694C391.294 172.145 390.939 172.048 389.844 170.953C389.135 170.244 386.653 168.149 384.333 166.345C382.013 164.54 378.178 161.479 375.858 159.545C368.897 153.809 362.066 148.331 360.938 147.59C359.456 146.623 359.037 147.235 360.326 148.524C362.614 150.812 383.785 168.439 388.555 171.984L391.455 174.175L392.808 173.273C395.354 171.629 419.974 151.199 422.487 148.685C423.164 148.009 423.583 147.332 423.422 147.171Z" fill="white"/>
<path d="M424.936 125.612C425.967 123.937 426.064 121.649 425.13 120.198C423.97 118.329 420.618 117.363 417.686 118.039C414.205 118.813 412.788 119.715 408.534 123.969C403.056 129.447 398.737 135.828 395.322 143.497L393.871 146.816L398.544 142.53C401.09 140.178 404.635 137.278 406.343 136.085C409.307 134.023 410.403 133.507 418.008 130.478C421.682 128.996 423.776 127.546 424.936 125.612Z" fill="white"/>
<path d="M393.678 143.852C394.871 140.79 395.322 139.63 397.03 135.86C399.35 130.768 401.316 126.998 404.119 122.39C406.117 119.103 407.148 117.943 416.3 108.791C425.807 99.2845 426.322 98.7044 427.096 96.642C429.448 90.2293 427.321 84.6866 422.068 83.6232C415.205 82.1731 407.761 87.4257 402.766 97.1899C397.384 107.792 393.066 126.289 392.712 139.985C392.583 145.527 392.744 146.204 393.678 143.852Z" fill="white"/>
<path d="M390.198 140.242C389.618 127.868 387.878 118.587 384.075 107.18C381.143 98.3178 379.016 94.3219 375.052 89.9716C371.121 85.6534 368.801 84.1711 364.74 83.5266C362.323 83.1076 358.134 84.1388 356.845 85.4278C355.685 86.5879 354.493 90.9383 354.783 93.0329C355.427 97.8022 357.425 100.38 367.479 109.597C373.054 114.72 374.021 115.816 376.889 119.844C381.175 125.999 385.235 133.862 389.521 144.464C389.876 145.398 390.262 146.107 390.327 146.043C390.391 145.978 390.327 143.336 390.198 140.242Z" fill="white"/>
<path d="M387.201 143.046C383.27 134.474 380.402 130.253 374.247 124.098C369.767 119.618 369.477 119.393 366.803 118.458C363.58 117.363 360.777 117.588 358.746 119.167C357.49 120.102 357.328 120.521 357.232 122.615C357.135 124.968 357.167 125.064 359.326 127.223C361.228 129.125 362.098 129.608 365.771 130.962C374.182 134.023 375.954 135.151 383.56 142.176L389.231 147.461L387.201 143.046Z" fill="white"/>
<path d="M491.127 -9.60351C493.35 -13.1805 492.673 -16.4996 489.096 -19.6899C485.1 -23.2346 481.105 -24.008 471.083 -23.0735C459.127 -21.9457 447.752 -24.1047 432.896 -30.2597C430.383 -31.2909 427.901 -32.2899 427.386 -32.4832C426.097 -32.9344 433.412 -26.2638 438.793 -22.1068C447.301 -15.4684 459.901 -8.41119 468.279 -5.57539C473.242 -3.8997 479.461 -3.35188 483.135 -4.31862C485.004 -4.83422 489.515 -7.15442 490.063 -7.89559C490.128 -8.02449 490.611 -8.76566 491.127 -9.60351Z" fill="white"/>
<path d="M451.812 29.5175C456.646 21.5902 454.036 9.57027 443.724 -7.89564C439.792 -14.5984 429.931 -27.295 426.548 -30.0342C425.388 -31.0009 425.452 -30.7431 427.128 -26.7472C433.992 -10.2803 436.054 0.096143 434.958 12.7283C434.346 20.559 434.507 23.427 435.829 27.0684C437.665 32.1277 442.338 35.318 446.173 34.0612C448.686 33.2234 450.362 31.8699 451.812 29.5175Z" fill="white"/>
<path d="M427.128 11.3426C431.543 3.25419 431.414 -3.77084 426.483 -18.3687C422.101 -31.1942 416.461 -40.8939 410.21 -46.2433C405.859 -50.0136 405.312 -50.1747 406.762 -47.2422C410.951 -38.7349 408.921 -29.4863 400.413 -18.7232C397.384 -14.7918 393.421 -9.2813 392.454 -7.54116C391.519 -5.83324 391.39 -5.83323 390.746 -7.25113C390.456 -7.8634 388.555 -10.667 386.428 -13.5028C379.661 -22.7191 378.855 -23.847 377.373 -26.6183C373.506 -33.9011 373.119 -40.4106 376.245 -47.0811L377.534 -49.788L375.052 -48.0801C371.862 -45.7921 370.283 -44.2131 367.286 -40.1205C362.646 -33.8045 359.359 -26.9083 356.04 -16.8219C353.558 -9.18463 352.753 -5.15651 352.785 -0.483899C352.849 10.7304 360.068 19.9467 370.476 22.0413C377.244 23.3948 383.785 21.3646 388.716 16.4342L391.487 13.6628L394.258 16.4342C404.087 26.1983 420.361 23.6526 427.128 11.3426Z" fill="white"/>
<path d="M346.92 28.0029C348.531 24.5227 348.692 21.5902 347.951 10.4726C347.242 -0.226082 349.401 -10.8925 355.234 -25.1037C356.298 -27.585 357.264 -30.0986 357.458 -30.6142C357.909 -31.9032 351.238 -24.5881 347.081 -19.2066C340.378 -10.6347 333.45 1.77187 330.518 10.4404C329.293 13.9207 328.939 16.0153 328.939 19.56C328.906 25.2638 329.648 27.7451 332.451 30.9354C335.158 34.029 337.672 34.9958 340.572 34.029C342.828 33.3201 345.76 30.5165 346.92 28.0029Z" fill="white"/>
<path d="M355.879 -32.4509C355.75 -32.4509 352.817 -31.323 349.401 -29.9696C333.643 -23.6857 324.008 -21.9134 311.537 -23.1057C301.998 -24.008 297.841 -23.2024 294.007 -19.8188C291.171 -17.3697 290.172 -14.6305 291.01 -11.7303C291.493 -9.95794 291.912 -9.34566 294.039 -7.47662C297.229 -4.67305 299.678 -3.89965 305.447 -3.93188C309.152 -3.9641 310.989 -4.31858 315.05 -5.73647C322.01 -8.12111 331.742 -13.2126 338.767 -18.0464C344.632 -22.1067 356.942 -32.4831 355.879 -32.4509Z" fill="white"/>
</g>
<defs>
<clipPath id="clip0_0_1">
<rect width="350" height="350" fill="white" transform="translate(352.975 133.151) rotate(135)"/>
</clipPath>
<clipPath id="clip1_0_1">
<rect width="350" height="350" fill="white" transform="translate(186.975 455.151) rotate(135)"/>
</clipPath>
<clipPath id="clip2_0_1">
<rect width="350" height="350" fill="white" transform="translate(638.975 -66.5127) rotate(135)"/>
</clipPath>
</defs>
</svg>
